<svg width="27" height="27" viewBox="0 0 27 27" fill="none" xmlns="http://www.w3.org/2000/svg">
<g id="euro">
<path id="Vector" d="M17.4375 20.8125C14.6138 20.8125 12.1725 19.215 10.9575 16.875H17.4375L18.5625 14.625H10.215C10.1588 14.2537 10.125 13.8825 10.125 13.5C10.125 13.1175 10.1588 12.7463 10.215 12.375H17.4375L18.5625 10.125H10.9575C12.1725 7.785 14.625 6.1875 17.4375 6.1875C19.2488 6.1875 20.9137 6.85125 22.1962 7.95375L24.1875 5.9625C22.3988 4.35375 20.025 3.375 17.4375 3.375C13.0275 3.375 9.2925 6.19875 7.8975 10.125H3.9375L2.8125 12.375H7.38C7.335 12.7463 7.3125 13.1175 7.3125 13.5C7.3125 13.8825 7.335 14.2537 7.38 14.625H3.9375L2.8125 16.875H7.8975C9.2925 20.8013 13.0275 23.625 17.4375 23.625C20.0362 23.625 22.3988 22.6463 24.1875 21.0375L22.185 19.0463C20.9137 20.1488 19.26 20.8125 17.4375 20.8125Z" fill="white"/>
</g>
</svg>
