<svg width="34" height="34" viewBox="0 0 34 34" fill="none" xmlns="http://www.w3.org/2000/svg">
<path d="M29.0417 8.49992C25.3442 9.49159 21.0092 9.91658 17 9.91658C12.9908 9.91658 8.65583 9.49159 4.95833 8.49992L4.25 11.3333C6.885 12.0416 9.91667 12.5091 12.75 12.7499V31.1666H15.5833V22.6666H18.4167V31.1666H21.25V12.7499C24.0833 12.5091 27.115 12.0416 29.75 11.3333L29.0417 8.49992ZM17 8.49992C18.5583 8.49992 19.8333 7.22492 19.8333 5.66659C19.8333 4.10825 18.5583 2.83325 17 2.83325C15.4417 2.83325 14.1667 4.10825 14.1667 5.66659C14.1667 7.22492 15.4417 8.49992 17 8.49992Z" fill="white"/>
</svg>
