<svg width="34" height="34" viewBox="0 0 34 34" fill="none" xmlns="http://www.w3.org/2000/svg">
<path d="M26.7609 20.8959L20.9667 18.0059C20.57 17.8076 20.145 17.7084 19.7059 17.7084H18.4167V9.20841C18.4167 8.03258 17.4675 7.08341 16.2917 7.08341C15.1159 7.08341 14.1667 8.03258 14.1667 9.20841V24.4234L9.56254 23.3751C9.09504 23.2759 8.59921 23.4176 8.25921 23.7717L7.08337 24.9617L13.515 31.7476C14.0534 32.2859 15.13 32.5834 15.8809 32.5834H24.6075C26.0242 32.5834 27.2142 31.5492 27.4125 30.1467L28.305 23.8284C28.475 22.6242 27.8517 21.4484 26.7609 20.8959Z" fill="white"/>
<path d="M28.5175 5.48258C26.4775 3.07425 22.1 1.41675 17 1.41675C11.9 1.41675 7.52254 3.07425 5.48254 5.48258L2.83337 2.83341V9.91675H9.91671L6.98421 6.98425C8.40087 5.15675 12.2259 3.54175 17 3.54175C21.7742 3.54175 25.5992 5.15675 27.0159 6.98425L24.0834 9.91675H31.1667V2.83341L28.5175 5.48258Z" fill="white"/>
</svg>
