<svg width="34" height="34" viewBox="0 0 34 34" fill="none" xmlns="http://www.w3.org/2000/svg">
<path d="M24.0833 5.66675L29.75 11.3334L24.0833 17.0001V12.7501H18.4167V9.91675H24.0833V5.66675ZM14.1667 9.91675C13.3875 9.91675 12.75 10.5542 12.75 11.3334C12.75 12.1126 13.3875 12.7501 14.1667 12.7501C14.9458 12.7501 15.5833 12.1126 15.5833 11.3334C15.5833 10.5542 14.9458 9.91675 14.1667 9.91675ZM8.5 9.91675C7.72083 9.91675 7.08333 10.5542 7.08333 11.3334C7.08333 12.1126 7.72083 12.7501 8.5 12.7501C9.27917 12.7501 9.91667 12.1126 9.91667 11.3334C9.91667 10.5542 9.27917 9.91675 8.5 9.91675ZM9.91667 24.0834H15.5833V21.2501H9.91667V17.0001L4.25 22.6667L9.91667 28.3334V24.0834ZM19.8333 24.0834C20.6125 24.0834 21.25 23.4459 21.25 22.6667C21.25 21.8876 20.6125 21.2501 19.8333 21.2501C19.0542 21.2501 18.4167 21.8876 18.4167 22.6667C18.4167 23.4459 19.0542 24.0834 19.8333 24.0834ZM25.5 24.0834C26.2792 24.0834 26.9167 23.4459 26.9167 22.6667C26.9167 21.8876 26.2792 21.2501 25.5 21.2501C24.7208 21.2501 24.0833 21.8876 24.0833 22.6667C24.0833 23.4459 24.7208 24.0834 25.5 24.0834Z" fill="white"/>
</svg>
