<svg width="49" height="48" viewBox="0 0 49 48" fill="none" xmlns="http://www.w3.org/2000/svg">
<rect x="0.5" width="48" height="48" rx="13" fill="#EBF2F9"/>
<path fill-rule="evenodd" clip-rule="evenodd" d="M33.3817 18.2223C34.6438 18.2223 35.7814 17.4631 36.2634 16.2993C36.7454 15.1355 36.4766 13.7965 35.5827 12.9076C34.6888 12.0186 33.3459 11.7551 32.1812 12.24C31.0164 12.7248 30.2595 13.8625 30.2638 15.1218C30.2696 16.8359 31.6639 18.2223 33.3817 18.2223ZM33.3819 13.7779C34.1257 13.7779 34.7288 14.3795 34.7288 15.1218C34.7288 15.864 34.1257 16.4657 33.3819 16.4657C32.638 16.4657 32.035 15.864 32.035 15.1218C32.035 14.3795 32.638 13.7779 33.3819 13.7779ZM14.2711 28.7937C14.2711 32.3069 16.2119 34.2328 19.7222 34.2328C20.2119 34.2385 20.6074 34.6332 20.6131 35.1217C20.6073 35.6085 20.2101 36 19.7222 36C15.268 36 12.5 33.2381 12.5 28.7937V20.1482C12.5 15.6932 15.268 12.9313 19.7222 12.9313H27.5278C28.0156 12.9371 28.4081 13.3334 28.408 13.8202C28.4081 14.055 28.3139 14.28 28.1465 14.445C27.9791 14.61 27.7525 14.7013 27.5172 14.6985H19.7222C16.2119 14.6985 14.2711 16.635 14.2711 20.1482V28.7937ZM26.7427 26.4868C26.5941 26.6698 26.3822 26.7906 26.1488 26.8255C25.9165 26.849 25.6842 26.7806 25.5019 26.635L22.246 24.0847L19.319 27.8837C19.1794 28.0731 18.9695 28.1988 18.7363 28.2327C18.503 28.2665 18.266 28.2056 18.0781 28.0635C17.6948 27.7637 17.6239 27.2121 17.919 26.8255L21.387 22.3175C21.5317 22.1306 21.7449 22.0089 21.9797 21.9791C22.2145 21.9493 22.4515 22.014 22.6384 22.1588L25.8943 24.7091L28.7577 21.0583C29.072 20.7601 29.5572 20.7348 29.901 20.9986C30.2447 21.2625 30.3447 21.7369 30.1364 22.1165L26.7427 26.4868ZM34.7713 20.1482C34.2851 20.1482 33.891 20.5414 33.891 21.0265V28.7936C33.8592 32.3069 31.9184 34.2328 28.408 34.2328H24.8659C24.3762 34.2385 23.9807 34.6331 23.975 35.1217C23.9808 35.6084 24.378 36 24.8659 36H28.408C32.8623 36 35.6409 33.2381 35.6409 28.7936V21.0265C35.6409 20.5455 35.2533 20.154 34.7713 20.1482Z" fill="#387FC4"/>
</svg>
