<?xml version="1.0" encoding="utf-8"?>
<!-- Generator: Adobe Illustrator 27.5.0, SVG Export Plug-In . SVG Version: 6.00 Build 0)  -->
<svg version="1.1" xmlns="http://www.w3.org/2000/svg" xmlns:xlink="http://www.w3.org/1999/xlink" x="0px" y="0px"
	 viewBox="0 0 500 500" style="enable-background:new 0 0 500 500;" xml:space="preserve">
<g id="Background_Complete">
	<g>
		<rect x="416.779" y="398.494" style="fill:#EBEBEB;" width="33.122" height="0.25"/>
		<rect x="322.527" y="401.208" style="fill:#EBEBEB;" width="8.693" height="0.25"/>
		<rect x="396.586" y="389.208" style="fill:#EBEBEB;" width="19.192" height="0.25"/>
		<rect x="52.459" y="390.888" style="fill:#EBEBEB;" width="43.193" height="0.25"/>
		<rect x="104.556" y="390.888" style="fill:#EBEBEB;" width="6.333" height="0.25"/>
		<rect x="131.471" y="395.111" style="fill:#EBEBEB;" width="93.676" height="0.25"/>
		<path style="fill:#EBEBEB;" d="M237.014,337.8H43.915c-3.147,0-5.708-2.561-5.708-5.708V60.66c0-3.147,2.561-5.708,5.708-5.708
			h193.099c3.146,0,5.707,2.561,5.707,5.708v271.432C242.721,335.239,240.16,337.8,237.014,337.8z M43.915,55.203
			c-3.01,0-5.458,2.448-5.458,5.458v271.432c0,3.01,2.448,5.458,5.458,5.458h193.099c3.009,0,5.457-2.448,5.457-5.458V60.66
			c0-3.009-2.448-5.458-5.457-5.458H43.915z"/>
		<path style="fill:#EBEBEB;" d="M453.31,337.8H260.212c-3.147,0-5.707-2.561-5.707-5.708V60.66c0-3.147,2.561-5.708,5.707-5.708
			H453.31c3.148,0,5.708,2.561,5.708,5.708v271.432C459.019,335.239,456.458,337.8,453.31,337.8z M260.212,55.203
			c-3.009,0-5.457,2.448-5.457,5.458v271.432c0,3.01,2.448,5.458,5.457,5.458H453.31c3.01,0,5.458-2.448,5.458-5.458V60.66
			c0-3.009-2.448-5.458-5.458-5.458H260.212z"/>
		<rect y="382.398" style="fill:#EBEBEB;" width="500" height="0.25"/>
	</g>
	<g>
		<path style="fill:#E0E0E0;" d="M51.982,223.16l-0.3-0.437c-1.422-2.069-0.897-4.898,1.171-6.32l101.246-69.584
			c2.069-1.422,4.898-0.897,6.32,1.171l0.3,0.437c1.422,2.069,0.897,4.898-1.171,6.32L58.303,224.332
			C56.234,225.753,53.404,225.229,51.982,223.16z"/>
		<path style="fill:#E0E0E0;" d="M136.112,382.054H65.139v-0.493c0-4.666,3.783-8.449,8.449-8.449h54.075
			c4.666,0,8.449,3.783,8.449,8.449V382.054z"/>
		<path style="fill:#E0E0E0;" d="M107.039,377.583H94.212v-44.473c0-3.347,2.713-6.06,6.06-6.06h0.707c3.347,0,6.06,2.713,6.06,6.06
			V377.583z"/>
		<path style="fill:#F0F0F0;" d="M103.665,339.299l-0.488,0.207c-2.311,0.981-4.979-0.097-5.96-2.408L49.215,224.012
			c-0.981-2.311,0.097-4.979,2.408-5.96l0.488-0.207c2.311-0.981,4.979,0.097,5.96,2.408l48.002,113.086
			C107.053,335.65,105.975,338.318,103.665,339.299z"/>
		<path style="fill:#EBEBEB;" d="M173.527,148.503l-15.86,15.86l-7.471-7.471c-4.138-4.138-4.138-10.848,0-14.986l0.874-0.874
			c4.138-4.138,10.848-4.138,14.986,0L173.527,148.503z"/>
		<polygon style="fill:#F0F0F0;" points="181.421,149.14 173.1,140.819 149.983,163.936 158.304,172.257 173.513,212.766 
			221.93,164.349 		"/>
		<g>
			<path style="fill:#F0F0F0;" d="M378.187,347.495c-14.268-1.633-17.569-24.276-7.274-33.95c10.295-9.674,32.691-4.97,33.433,9.368
				c0.33,6.386-12.419,4.075-17.073,8.041C382.525,335,384.469,348.214,378.187,347.495z"/>
		</g>
		<path style="fill:#E0E0E0;" d="M397.807,317.673c-7.541,0.875-11.492,7.348-12.582,9.441c-0.417-0.448-0.82-0.874-1.21-1.279
			c-0.453-1.911-1.319-7.281,2.193-10.584c0.213-0.2,0.247-0.525,0.061-0.75c-0.195-0.237-0.556-0.273-0.781-0.064
			c-3.199,2.972-3.229,7.3-2.851,9.992c-3.915-3.914-6.76-6.107-7.956-6.97c-0.336-0.242-0.803-0.152-1.029,0.195
			c-0.21,0.323-0.135,0.752,0.177,0.979c1.169,0.85,4.101,3.121,8.108,7.166c-2.425-0.235-6.915-0.237-10.923,2.151
			c-0.263,0.157-0.337,0.508-0.17,0.764c0.16,0.246,0.484,0.313,0.737,0.163c4.666-2.767,10.215-2.051,11.583-1.818
			c0.529,0.552,1.071,1.13,1.63,1.74c-6.8,2.571-9.649,8.017-10.406,9.765c-0.126,0.291,0.023,0.624,0.323,0.729
			c0.268,0.094,0.562-0.03,0.677-0.29c0.714-1.607,3.548-6.99,10.192-9.339c5.188,5.776,11.519,13.984,17.991,25.16l1.253-0.726
			c-6.971-12.035-13.745-20.57-18.813-26.13c0.644-1.339,4.351-8.329,11.91-9.213c0.292-0.034,0.51-0.284,0.487-0.578
			C398.385,317.871,398.111,317.638,397.807,317.673z"/>
		<g>
			<path style="fill:#F0F0F0;" d="M436.788,337.033c17.27-6.226,14.72-35.363-0.931-44.371c-15.65-9.009-42.128,3.427-38.836,21.481
				c1.466,8.041,16.647,1.419,23.602,4.984C427.718,322.764,429.184,339.774,436.788,337.033z"/>
		</g>
		<path style="fill:#E0E0E0;" d="M403.614,305.702c9.638-1.128,16.455,5.762,18.426,8.046c0.387-0.68,0.764-1.329,1.13-1.947
			c0.001-2.51-0.499-9.445-5.839-12.522c-0.324-0.186-0.461-0.58-0.297-0.915c0.173-0.353,0.611-0.503,0.953-0.309
			c4.853,2.757,6.163,8.132,6.483,11.591c3.72-6.02,6.614-9.584,7.848-11.009c0.347-0.4,0.954-0.425,1.338-0.06
			c0.357,0.34,0.389,0.896,0.068,1.27c-1.204,1.401-4.184,5.088-7.98,11.298c2.947-1.005,8.532-2.327,14.221-0.535
			c0.373,0.117,0.569,0.532,0.436,0.9c-0.127,0.353-0.51,0.531-0.869,0.419c-6.617-2.071-13.31,0.451-14.943,1.144
			c-0.495,0.842-1,1.72-1.517,2.643c9.215,1.2,14.359,7.136,15.815,9.088c0.242,0.325,0.155,0.783-0.187,1.001
			c-0.306,0.196-0.707,0.128-0.927-0.162c-1.361-1.789-6.468-7.652-15.424-8.621c-4.755,8.71-10.218,20.782-14.985,36.587
			l-1.772-0.535c5.134-17.02,11.052-29.629,15.722-38.035c-1.194-1.477-7.86-9.082-17.524-7.96
			c-0.373,0.043-0.718-0.204-0.776-0.575C402.954,306.118,403.225,305.747,403.614,305.702z"/>
		<g>
			<path style="fill:#E0E0E0;" d="M432.026,350.629c10.384,0.256,15.011-15.634,8.604-23.593c-6.408-7.959-22.921-6.827-24.885,3.37
				c-0.875,4.541,8.489,4.16,11.426,7.466C430.168,341.244,427.454,350.516,432.026,350.629z"/>
		</g>
		<path style="fill:#F0F0F0;" d="M420.952,328.305c5.314,1.38,7.498,6.412,8.069,8.02c0.344-0.279,0.675-0.544,0.995-0.796
			c0.515-1.324,1.673-5.084-0.513-7.801c-0.132-0.165-0.124-0.4,0.031-0.544c0.163-0.151,0.426-0.14,0.566,0.032
			c1.994,2.449,1.584,5.552,1.044,7.442c3.196-2.413,5.453-3.699,6.396-4.197c0.265-0.14,0.59-0.029,0.718,0.243
			c0.118,0.252,0.022,0.552-0.224,0.684c-0.922,0.492-3.25,1.826-6.524,4.323c1.76,0.074,4.977,0.521,7.61,2.633
			c0.173,0.138,0.191,0.397,0.046,0.564c-0.139,0.16-0.378,0.176-0.544,0.043c-3.066-2.448-7.112-2.49-8.116-2.46
			c-0.434,0.342-0.88,0.702-1.342,1.083c4.614,2.521,6.111,6.707,6.478,8.035c0.061,0.221-0.079,0.445-0.304,0.49
			c-0.202,0.04-0.399-0.078-0.456-0.275c-0.351-1.223-1.843-5.362-6.368-7.708c-4.293,3.619-9.649,8.866-15.402,16.225l-0.825-0.645
			c6.196-7.925,11.902-13.362,16.088-16.838c-0.327-1.024-2.284-6.401-7.611-7.79c-0.206-0.054-0.337-0.255-0.292-0.462
			C420.518,328.389,420.737,328.249,420.952,328.305z"/>
	</g>
	<path style="fill:#E0E0E0;" d="M428.115,382.648h-48.508c-6.049,0-10.953-4.904-10.953-10.953v-20.09h70.413v20.09
		C439.067,377.745,434.164,382.648,428.115,382.648z"/>
</g>
<g id="Background_Simple" style="display:none;">
	<g style="display:inline;">
		<path style="fill:#407BFF;" d="M107.031,305.901c5.176,33.747-16.314,83.352,26.669,102.177
			c57.404,25.141,93.372-38.5,139.952-50.153c35.582-8.901,97.066,55.696,141.381,14.686c44.36-41.051-30.313-96.977-33.124-130.368
			c-2.781-33.036,59.052-90.582,9.449-125.666c-48.641-34.404-103.965,31.308-150.022,43.578
			c-40.859,10.886-140.139-40.88-169.657,9.869C43.717,218.098,102.033,273.322,107.031,305.901z"/>
		<path style="opacity:0.9;fill:#FFFFFF;" d="M107.031,305.901c5.176,33.747-16.314,83.352,26.669,102.177
			c57.404,25.141,93.372-38.5,139.952-50.153c35.582-8.901,97.066,55.696,141.381,14.686c44.36-41.051-30.313-96.977-33.124-130.368
			c-2.781-33.036,59.052-90.582,9.449-125.666c-48.641-34.404-103.965,31.308-150.022,43.578
			c-40.859,10.886-140.139-40.88-169.657,9.869C43.717,218.098,102.033,273.322,107.031,305.901z"/>
	</g>
</g>
<g id="Shadow">
	<ellipse id="_x3C_Path_x3E__1_" style="fill:#F5F5F5;" cx="245.178" cy="412.391" rx="193.889" ry="11.323"/>
</g>
<g id="Template">
	<g>
		<g>
			<rect x="256.203" y="119.082" style="fill:#407BFF;" width="162.324" height="189.851"/>
			<rect x="256.203" y="119.082" style="opacity:0.3;fill:#FFFFFF;" width="162.324" height="189.851"/>
		</g>
		<g>
			<rect x="259.526" y="137.026" style="fill:#263238;" width="19.279" height="109.5"/>
			<rect x="259.526" y="137.026" style="opacity:0.4;fill:#FFFFFF;" width="19.279" height="109.5"/>
		</g>
		<g>
			<rect x="256.203" y="119.082" style="fill:#263238;" width="162.324" height="11.444"/>
			<polyline style="opacity:0.4;fill:#FFFFFF;" points="418.526,130.526 418.526,119.082 256.203,119.082 256.203,130.526 			"/>
		</g>
		<g>
			<path style="fill:#407BFF;" d="M266.281,154.026h-2.76c-0.964,0-1.745-0.781-1.745-1.745v-2.76c0-0.964,0.781-1.745,1.745-1.745
				h2.76c0.964,0,1.745,0.781,1.745,1.745v2.76C268.026,153.245,267.245,154.026,266.281,154.026z"/>
			<path style="fill:#407BFF;" d="M274.671,154.026h-2.76c-0.964,0-1.745-0.781-1.745-1.745v-2.76c0-0.964,0.781-1.745,1.745-1.745
				h2.76c0.964,0,1.745,0.781,1.745,1.745v2.76C276.416,153.245,275.635,154.026,274.671,154.026z"/>
			<path style="fill:#407BFF;" d="M266.281,162.901h-2.76c-0.964,0-1.745-0.781-1.745-1.745v-2.76c0-0.964,0.781-1.745,1.745-1.745
				h2.76c0.964,0,1.745,0.781,1.745,1.745v2.76C268.026,162.12,267.245,162.901,266.281,162.901z"/>
			<path style="fill:#407BFF;" d="M274.671,162.901h-2.76c-0.964,0-1.745-0.781-1.745-1.745v-2.76c0-0.964,0.781-1.745,1.745-1.745
				h2.76c0.964,0,1.745,0.781,1.745,1.745v2.76C276.416,162.12,275.635,162.901,274.671,162.901z"/>
			<path style="fill:#407BFF;" d="M266.281,171.776h-2.76c-0.964,0-1.745-0.781-1.745-1.745v-2.76c0-0.964,0.781-1.745,1.745-1.745
				h2.76c0.964,0,1.745,0.781,1.745,1.745v2.76C268.026,170.995,267.245,171.776,266.281,171.776z"/>
			<path style="fill:#407BFF;" d="M274.671,171.776h-2.76c-0.964,0-1.745-0.781-1.745-1.745v-2.76c0-0.964,0.781-1.745,1.745-1.745
				h2.76c0.964,0,1.745,0.781,1.745,1.745v2.76C276.416,170.995,275.635,171.776,274.671,171.776z"/>
			<path style="fill:#407BFF;" d="M266.281,180.651h-2.76c-0.964,0-1.745-0.781-1.745-1.745v-2.76c0-0.964,0.781-1.745,1.745-1.745
				h2.76c0.964,0,1.745,0.781,1.745,1.745v2.76C268.026,179.87,267.245,180.651,266.281,180.651z"/>
			<path style="fill:#407BFF;" d="M274.671,180.651h-2.76c-0.964,0-1.745-0.781-1.745-1.745v-2.76c0-0.964,0.781-1.745,1.745-1.745
				h2.76c0.964,0,1.745,0.781,1.745,1.745v2.76C276.416,179.87,275.635,180.651,274.671,180.651z"/>
			<path style="fill:#407BFF;" d="M266.281,189.526h-2.76c-0.964,0-1.745-0.781-1.745-1.745v-2.76c0-0.964,0.781-1.745,1.745-1.745
				h2.76c0.964,0,1.745,0.781,1.745,1.745v2.76C268.026,188.745,267.245,189.526,266.281,189.526z"/>
			<path style="fill:#407BFF;" d="M274.671,189.526h-2.76c-0.964,0-1.745-0.781-1.745-1.745v-2.76c0-0.964,0.781-1.745,1.745-1.745
				h2.76c0.964,0,1.745,0.781,1.745,1.745v2.76C276.416,188.745,275.635,189.526,274.671,189.526z"/>
			<path style="fill:#407BFF;" d="M266.281,198.401h-2.76c-0.964,0-1.745-0.781-1.745-1.745v-2.76c0-0.964,0.781-1.745,1.745-1.745
				h2.76c0.964,0,1.745,0.781,1.745,1.745v2.76C268.026,197.62,267.245,198.401,266.281,198.401z"/>
			<path style="fill:#407BFF;" d="M274.671,198.401h-2.76c-0.964,0-1.745-0.781-1.745-1.745v-2.76c0-0.964,0.781-1.745,1.745-1.745
				h2.76c0.964,0,1.745,0.781,1.745,1.745v2.76C276.416,197.62,275.635,198.401,274.671,198.401z"/>
			<path style="fill:#407BFF;" d="M266.281,207.276h-2.76c-0.964,0-1.745-0.781-1.745-1.745v-2.76c0-0.964,0.781-1.745,1.745-1.745
				h2.76c0.964,0,1.745,0.781,1.745,1.745v2.76C268.026,206.495,267.245,207.276,266.281,207.276z"/>
			<path style="fill:#407BFF;" d="M274.671,207.276h-2.76c-0.964,0-1.745-0.781-1.745-1.745v-2.76c0-0.964,0.781-1.745,1.745-1.745
				h2.76c0.964,0,1.745,0.781,1.745,1.745v2.76C276.416,206.495,275.635,207.276,274.671,207.276z"/>
			<path style="fill:#407BFF;" d="M266.281,216.151h-2.76c-0.964,0-1.745-0.781-1.745-1.745v-2.76c0-0.964,0.781-1.745,1.745-1.745
				h2.76c0.964,0,1.745,0.781,1.745,1.745v2.76C268.026,215.37,267.245,216.151,266.281,216.151z"/>
			<path style="fill:#407BFF;" d="M274.671,216.151h-2.76c-0.964,0-1.745-0.781-1.745-1.745v-2.76c0-0.964,0.781-1.745,1.745-1.745
				h2.76c0.964,0,1.745,0.781,1.745,1.745v2.76C276.416,215.37,275.635,216.151,274.671,216.151z"/>
		</g>
		<path style="fill:#407BFF;" d="M269.009,233.276h-5.216c-1.114,0-2.017-0.903-2.017-2.017v-5.216c0-1.114,0.903-2.017,2.017-2.017
			h5.216c1.114,0,2.017,0.903,2.017,2.017v5.216C271.026,232.373,270.123,233.276,269.009,233.276z"/>
		<g>
			<path style="fill:#407BFF;" d="M276.401,238.651h-10.75v-3.055c0-0.414,0.336-0.75,0.75-0.75l0,0c0.414,0,0.75,0.336,0.75,0.75
				v1.555h7.75v-7.75h-1.555c-0.414,0-0.75-0.336-0.75-0.75l0,0c0-0.414,0.336-0.75,0.75-0.75h3.055V238.651z"/>
		</g>
		<rect x="259.526" y="137.026" style="fill:#407BFF;" width="19.279" height="6.5"/>
		<g>
			<path style="fill:#263238;" d="M412.285,302.526L412.285,302.526c-1.514,0-2.741-1.227-2.741-2.741V136.767
				c0-1.514,1.227-2.741,2.741-2.741l0,0c1.514,0,2.741,1.227,2.741,2.741v163.018C415.026,301.299,413.799,302.526,412.285,302.526
				z"/>
			<path style="opacity:0.4;fill:#FFFFFF;" d="M412.285,302.526L412.285,302.526c-1.514,0-2.741-1.227-2.741-2.741V136.767
				c0-1.514,1.227-2.741,2.741-2.741l0,0c1.514,0,2.741,1.227,2.741,2.741v163.018C415.026,301.299,413.799,302.526,412.285,302.526
				z"/>
		</g>
		<rect x="290.526" y="143.526" style="opacity:0.4;fill:#FFFFFF;" width="108.5" height="48.625"/>
		<polygon style="fill:#407BFF;" points="393.373,189.07 345.998,167.839 392.536,146.982 392.127,146.07 344.776,167.291 
			297.425,146.07 297.016,146.982 343.554,167.839 297.016,188.695 297.425,189.607 344.776,168.386 392.964,189.982 		"/>
		<rect x="297.221" y="205.526" style="opacity:0.4;fill:#FFFFFF;" width="44.353" height="36"/>
		<polygon style="fill:#407BFF;" points="339.495,239.195 320.191,223.526 339.152,208.135 338.523,207.359 319.398,222.882 
			300.273,207.359 299.643,208.135 318.604,223.526 299.643,238.917 300.273,239.693 319.398,224.17 338.865,239.971 		"/>
		<rect x="347.978" y="205.526" style="opacity:0.4;fill:#FFFFFF;" width="44.354" height="36"/>
		<polygon style="fill:#407BFF;" points="390.252,239.195 370.948,223.526 389.91,208.135 389.28,207.359 370.155,222.882 
			351.03,207.359 350.4,208.135 369.362,223.526 350.4,238.917 351.03,239.693 370.155,224.17 389.622,239.971 		"/>
		<g>
			<g>
				<path style="fill:#263238;" d="M340.396,250.883h-41.996c-0.651,0-1.179-0.528-1.179-1.179l0,0c0-0.651,0.528-1.179,1.179-1.179
					h41.996c0.651,0,1.179,0.528,1.179,1.179l0,0C341.574,250.356,341.047,250.883,340.396,250.883z"/>
				<path style="opacity:0.4;fill:#FFFFFF;" d="M340.396,250.883h-41.996c-0.651,0-1.179-0.528-1.179-1.179l0,0
					c0-0.651,0.528-1.179,1.179-1.179h41.996c0.651,0,1.179,0.528,1.179,1.179l0,0C341.574,250.356,341.047,250.883,340.396,250.883
					z"/>
			</g>
			<g>
				<path style="fill:#263238;" d="M332.933,255.598h-34.534c-0.651,0-1.179-0.528-1.179-1.178l0,0c0-0.651,0.528-1.179,1.179-1.179
					h34.534c0.651,0,1.179,0.528,1.179,1.179l0,0C334.112,255.07,333.584,255.598,332.933,255.598z"/>
				<path style="opacity:0.4;fill:#FFFFFF;" d="M332.933,255.598h-34.534c-0.651,0-1.179-0.528-1.179-1.178l0,0
					c0-0.651,0.528-1.179,1.179-1.179h34.534c0.651,0,1.179,0.528,1.179,1.179l0,0C334.112,255.07,333.584,255.598,332.933,255.598z
					"/>
			</g>
			<g>
				<path style="fill:#263238;" d="M335.362,260.312h-36.963c-0.651,0-1.179-0.528-1.179-1.178l0,0c0-0.651,0.528-1.179,1.179-1.179
					h36.963c0.651,0,1.178,0.528,1.178,1.179l0,0C336.54,259.784,336.013,260.312,335.362,260.312z"/>
				<path style="opacity:0.4;fill:#FFFFFF;" d="M335.362,260.312h-36.963c-0.651,0-1.179-0.528-1.179-1.178l0,0
					c0-0.651,0.528-1.179,1.179-1.179h36.963c0.651,0,1.178,0.528,1.178,1.179l0,0C336.54,259.784,336.013,260.312,335.362,260.312z
					"/>
			</g>
		</g>
		<g>
			<g>
				<path style="fill:#263238;" d="M391.153,250.883h-41.996c-0.651,0-1.179-0.528-1.179-1.179l0,0c0-0.651,0.528-1.179,1.179-1.179
					h41.996c0.651,0,1.179,0.528,1.179,1.179l0,0C392.332,250.356,391.804,250.883,391.153,250.883z"/>
				<path style="opacity:0.4;fill:#FFFFFF;" d="M391.153,250.883h-41.996c-0.651,0-1.179-0.528-1.179-1.179l0,0
					c0-0.651,0.528-1.179,1.179-1.179h41.996c0.651,0,1.179,0.528,1.179,1.179l0,0C392.332,250.356,391.804,250.883,391.153,250.883
					z"/>
			</g>
			<g>
				<path style="fill:#263238;" d="M386.691,255.598h-37.534c-0.651,0-1.179-0.528-1.179-1.178l0,0c0-0.651,0.528-1.179,1.179-1.179
					h37.534c0.651,0,1.179,0.528,1.179,1.179l0,0C387.87,255.07,387.342,255.598,386.691,255.598z"/>
				<path style="opacity:0.4;fill:#FFFFFF;" d="M386.691,255.598h-37.534c-0.651,0-1.179-0.528-1.179-1.178l0,0
					c0-0.651,0.528-1.179,1.179-1.179h37.534c0.651,0,1.179,0.528,1.179,1.179l0,0C387.87,255.07,387.342,255.598,386.691,255.598z"
					/>
			</g>
			<g>
				<path style="fill:#263238;" d="M384.12,260.312h-34.963c-0.651,0-1.179-0.528-1.179-1.178l0,0c0-0.651,0.528-1.179,1.179-1.179
					h34.963c0.651,0,1.179,0.528,1.179,1.179l0,0C385.298,259.784,384.771,260.312,384.12,260.312z"/>
				<path style="opacity:0.4;fill:#FFFFFF;" d="M384.12,260.312h-34.963c-0.651,0-1.179-0.528-1.179-1.178l0,0
					c0-0.651,0.528-1.179,1.179-1.179h34.963c0.651,0,1.179,0.528,1.179,1.179l0,0C385.298,259.784,384.771,260.312,384.12,260.312z
					"/>
			</g>
		</g>
		<g>
			<g>
				<path style="fill:#263238;" d="M340.396,272.12h-41.996c-0.651,0-1.179-0.528-1.179-1.179l0,0c0-0.651,0.528-1.179,1.179-1.179
					h41.996c0.651,0,1.179,0.528,1.179,1.179l0,0C341.574,271.592,341.047,272.12,340.396,272.12z"/>
				<path style="opacity:0.4;fill:#FFFFFF;" d="M340.396,272.12h-41.996c-0.651,0-1.179-0.528-1.179-1.179l0,0
					c0-0.651,0.528-1.179,1.179-1.179h41.996c0.651,0,1.179,0.528,1.179,1.179l0,0C341.574,271.592,341.047,272.12,340.396,272.12z"
					/>
			</g>
			<g>
				<path style="fill:#263238;" d="M335.933,276.834h-37.534c-0.651,0-1.179-0.528-1.179-1.179l0,0c0-0.651,0.528-1.179,1.179-1.179
					h37.534c0.651,0,1.179,0.528,1.179,1.179l0,0C337.112,276.306,336.584,276.834,335.933,276.834z"/>
				<path style="opacity:0.4;fill:#FFFFFF;" d="M335.933,276.834h-37.534c-0.651,0-1.179-0.528-1.179-1.179l0,0
					c0-0.651,0.528-1.179,1.179-1.179h37.534c0.651,0,1.179,0.528,1.179,1.179l0,0C337.112,276.306,336.584,276.834,335.933,276.834
					z"/>
			</g>
			<g>
				<path style="fill:#263238;" d="M330.362,281.548h-31.963c-0.651,0-1.179-0.528-1.179-1.179l0,0c0-0.651,0.528-1.179,1.179-1.179
					h31.963c0.651,0,1.178,0.528,1.178,1.179l0,0C331.54,281.021,331.013,281.548,330.362,281.548z"/>
				<path style="opacity:0.4;fill:#FFFFFF;" d="M330.362,281.548h-31.963c-0.651,0-1.179-0.528-1.179-1.179l0,0
					c0-0.651,0.528-1.179,1.179-1.179h31.963c0.651,0,1.178,0.528,1.178,1.179l0,0C331.54,281.021,331.013,281.548,330.362,281.548z
					"/>
			</g>
		</g>
		<g>
			<g>
				<path style="fill:#263238;" d="M388.153,272.12h-38.996c-0.651,0-1.179-0.528-1.179-1.179l0,0c0-0.651,0.528-1.179,1.179-1.179
					h38.996c0.651,0,1.179,0.528,1.179,1.179l0,0C389.332,271.592,388.804,272.12,388.153,272.12z"/>
				<path style="opacity:0.4;fill:#FFFFFF;" d="M388.153,272.12h-38.996c-0.651,0-1.179-0.528-1.179-1.179l0,0
					c0-0.651,0.528-1.179,1.179-1.179h38.996c0.651,0,1.179,0.528,1.179,1.179l0,0C389.332,271.592,388.804,272.12,388.153,272.12z"
					/>
			</g>
			<g>
				<path style="fill:#263238;" d="M383.691,276.834h-34.534c-0.651,0-1.179-0.528-1.179-1.179l0,0c0-0.651,0.528-1.179,1.179-1.179
					h34.534c0.651,0,1.179,0.528,1.179,1.179l0,0C384.87,276.306,384.342,276.834,383.691,276.834z"/>
				<path style="opacity:0.4;fill:#FFFFFF;" d="M383.691,276.834h-34.534c-0.651,0-1.179-0.528-1.179-1.179l0,0
					c0-0.651,0.528-1.179,1.179-1.179h34.534c0.651,0,1.179,0.528,1.179,1.179l0,0C384.87,276.306,384.342,276.834,383.691,276.834z
					"/>
			</g>
			<g>
				<path style="fill:#263238;" d="M384.12,281.548h-34.963c-0.651,0-1.179-0.528-1.179-1.179l0,0c0-0.651,0.528-1.179,1.179-1.179
					h34.963c0.651,0,1.179,0.528,1.179,1.179l0,0C385.298,281.021,384.771,281.548,384.12,281.548z"/>
				<path style="opacity:0.4;fill:#FFFFFF;" d="M384.12,281.548h-34.963c-0.651,0-1.179-0.528-1.179-1.179l0,0
					c0-0.651,0.528-1.179,1.179-1.179h34.963c0.651,0,1.179,0.528,1.179,1.179l0,0C385.298,281.021,384.771,281.548,384.12,281.548z
					"/>
			</g>
		</g>
		<g>
			<path style="opacity:0.4;fill:#FFFFFF;" d="M412.285,277.251L412.285,277.251c-1.06,0-1.919-0.859-1.919-1.919v-11.14
				c0-1.06,0.859-1.919,1.919-1.919l0,0c1.06,0,1.919,0.859,1.919,1.919v11.14C414.204,276.392,413.345,277.251,412.285,277.251z"/>
		</g>
	</g>
</g>
<g id="Device">
	<g>
		<path style="fill:#263238;" d="M324.697,233.276H90.395c-5.391,0-9.761,4.37-9.761,9.761V391.5c0,5.391,4.37,9.761,9.761,9.761
			h31.097v-4.757c0-1.4,1.135-2.534,2.534-2.534h167.039c1.4,0,2.534,1.135,2.534,2.534v4.757h31.097
			c5.391,0,9.761-4.37,9.761-9.761V243.037C334.457,237.646,330.087,233.276,324.697,233.276z"/>
		<path style="fill:#407BFF;" d="M209.6,239.667c0,1.135-0.92,2.054-2.054,2.054c-1.135,0-2.054-0.92-2.054-2.054
			c0-1.134,0.92-2.054,2.054-2.054C208.68,237.613,209.6,238.533,209.6,239.667z"/>
		<g>
			<rect x="61.459" y="397.604" style="fill:#263238;" width="292.174" height="7.313"/>
			<rect x="61.459" y="397.604" style="opacity:0.5;fill:#FFFFFF;" width="292.174" height="7.313"/>
			<path style="fill:#263238;" d="M61.459,404.917l4.522,3.622c2.983,2.389,6.69,3.691,10.511,3.691h262.106
				c3.822,0,7.529-1.302,10.512-3.691l4.522-3.622H61.459z"/>
			<path style="opacity:0.3;fill:#FFFFFF;" d="M61.459,404.917l4.522,3.622c2.983,2.389,6.69,3.691,10.511,3.691h262.106
				c3.822,0,7.529-1.302,10.512-3.691l4.522-3.622H61.459z"/>
			<path style="opacity:0.4;fill:#FFFFFF;" d="M179.47,397.844c0,1.887,1.53,3.417,3.417,3.417h49.317
				c1.887,0,3.417-1.53,3.417-3.417c0-0.082-0.018-0.159-0.024-0.239h-56.103C179.489,397.685,179.47,397.762,179.47,397.844z"/>
		</g>
		<g>
			<g>
				<rect x="92.047" y="246.515" style="fill:#407BFF;" width="230.997" height="131.477"/>
				<rect x="92.047" y="246.515" style="opacity:0.6;fill:#FFFFFF;" width="230.997" height="131.477"/>
			</g>
			<rect x="92.047" y="246.515" style="fill:#407BFF;" width="230.997" height="15.826"/>
			<path style="opacity:0.8;fill:#FFFFFF;" d="M193.971,258.384h-89.477c-2.143,0-3.88-1.737-3.88-3.88l0,0
				c0-2.143,1.737-3.88,3.88-3.88h89.477c2.143,0,3.88,1.737,3.88,3.88l0,0C197.852,256.647,196.114,258.384,193.971,258.384z"/>
			<path style="opacity:0.8;fill:#FFFFFF;" d="M314.263,254.504c0,2.143-1.737,3.88-3.88,3.88c-2.143,0-3.88-1.737-3.88-3.88
				c0-2.143,1.737-3.88,3.88-3.88C312.526,250.624,314.263,252.361,314.263,254.504z"/>
			<circle style="opacity:0.6;fill:#FFFFFF;" cx="296.916" cy="254.504" r="3.88"/>
			<circle style="opacity:0.4;fill:#FFFFFF;" cx="283.448" cy="254.504" r="3.88"/>
			<rect x="100.614" y="277.48" style="fill:#407BFF;" width="213.65" height="74.947"/>
			<g>
				<path style="fill:#407BFF;" d="M121.072,352.427l40.998-40.998c2.139-2.138,5.606-2.138,7.744,0l40.998,40.998H121.072z"/>
				<path style="opacity:0.3;" d="M121.072,352.427l40.998-40.998c2.139-2.138,5.606-2.138,7.744,0l40.998,40.998H121.072z"/>
				<path style="fill:#407BFF;" d="M169.814,311.429c-1.561-1.56-3.825-1.969-5.768-1.252c0.016,3.355,7.645,6.137,7.645,9.494
					c0,3.36-7.647,6.144-7.647,9.504c0,3.36,14.038,6.144,14.038,9.504s-14.038,6.144-14.038,9.504c0,1.198,1.507,2.74,3.477,4.244
					h43.29L169.814,311.429z"/>
				<path style="opacity:0.4;fill:#FFFFFF;" d="M169.814,311.429c-1.561-1.56-3.825-1.969-5.768-1.252
					c0.016,3.355,7.645,6.137,7.645,9.494c0,3.36-7.647,6.144-7.647,9.504c0,3.36,14.038,6.144,14.038,9.504
					s-14.038,6.144-14.038,9.504c0,1.198,1.507,2.74,3.477,4.244h43.29L169.814,311.429z"/>
			</g>
			<g>
				<path style="fill:#407BFF;" d="M193.882,352.427l53.159-53.159c2.773-2.773,7.268-2.773,10.041,0l53.159,53.159H193.882z"/>
				<path style="opacity:0.3;" d="M193.882,352.427l53.159-53.159c2.773-2.773,7.268-2.773,10.041,0l53.159,53.159H193.882z"/>
				<path style="fill:#407BFF;" d="M257.082,299.268c-2.023-2.023-4.96-2.553-7.479-1.623c0.02,4.351,9.913,7.957,9.913,12.31
					c0,4.357-9.915,7.966-9.915,12.323s18.202,7.966,18.202,12.323s-18.202,7.966-18.202,12.323c0,1.554,1.954,3.552,4.509,5.502
					h56.131L257.082,299.268z"/>
				<path style="opacity:0.4;fill:#FFFFFF;" d="M257.082,299.268c-2.023-2.023-4.96-2.553-7.479-1.623
					c0.02,4.351,9.913,7.957,9.913,12.31c0,4.357-9.915,7.966-9.915,12.323s18.202,7.966,18.202,12.323s-18.202,7.966-18.202,12.323
					c0,1.554,1.954,3.552,4.509,5.502h56.131L257.082,299.268z"/>
			</g>
			<path style="opacity:0.5;fill:#FFFFFF;" d="M208.301,272.08h-22.826c-1.387,0-2.511-1.124-2.511-2.511l0,0
				c0-1.387,1.124-2.511,2.511-2.511h22.826c1.387,0,2.511,1.124,2.511,2.511l0,0C210.812,270.956,209.688,272.08,208.301,272.08z"
				/>
			<path style="fill:#407BFF;" d="M242.997,272.08h-22.826c-1.387,0-2.511-1.124-2.511-2.511l0,0c0-1.387,1.124-2.511,2.511-2.511
				h22.826c1.387,0,2.511,1.124,2.511,2.511l0,0C245.507,270.956,244.383,272.08,242.997,272.08z"/>
			<path style="opacity:0.5;fill:#FFFFFF;" d="M277.692,272.08h-22.826c-1.387,0-2.511-1.124-2.511-2.511l0,0
				c0-1.387,1.124-2.511,2.511-2.511h22.826c1.387,0,2.511,1.124,2.511,2.511l0,0C280.203,270.956,279.078,272.08,277.692,272.08z"
				/>
			<g>
				<path style="fill:#263238;" d="M243.716,363.469h-38.953c-1.04,0-1.883-0.843-1.883-1.883l0,0c0-1.04,0.843-1.883,1.883-1.883
					h38.953c1.04,0,1.883,0.843,1.883,1.883l0,0C245.599,362.626,244.756,363.469,243.716,363.469z"/>
				<path style="fill:#263238;" d="M272.99,363.469h-22.176c-1.04,0-1.883-0.843-1.883-1.883l0,0c0-1.04,0.843-1.883,1.883-1.883
					h22.176c1.04,0,1.883,0.843,1.883,1.883l0,0C274.873,362.626,274.03,363.469,272.99,363.469z"/>
				<path style="fill:#263238;" d="M233.787,371.857h-29.024c-1.04,0-1.883-0.843-1.883-1.883l0,0c0-1.04,0.843-1.883,1.883-1.883
					h29.024c1.04,0,1.883,0.843,1.883,1.883l0,0C235.67,371.014,234.827,371.857,233.787,371.857z"/>
				<path style="fill:#263238;" d="M260.961,371.857h-20.326c-1.04,0-1.883-0.843-1.883-1.883l0,0c0-1.04,0.843-1.883,1.883-1.883
					h20.326c1.04,0,1.883,0.843,1.883,1.883l0,0C262.844,371.014,262.001,371.857,260.961,371.857z"/>
				<path style="opacity:0.4;fill:#FFFFFF;" d="M243.716,363.469h-38.953c-1.04,0-1.883-0.843-1.883-1.883l0,0
					c0-1.04,0.843-1.883,1.883-1.883h38.953c1.04,0,1.883,0.843,1.883,1.883l0,0C245.599,362.626,244.756,363.469,243.716,363.469z"
					/>
				<path style="opacity:0.4;fill:#FFFFFF;" d="M272.99,363.469h-22.176c-1.04,0-1.883-0.843-1.883-1.883l0,0
					c0-1.04,0.843-1.883,1.883-1.883h22.176c1.04,0,1.883,0.843,1.883,1.883l0,0C274.873,362.626,274.03,363.469,272.99,363.469z"/>
				<path style="opacity:0.4;fill:#FFFFFF;" d="M233.787,371.857h-29.024c-1.04,0-1.883-0.843-1.883-1.883l0,0
					c0-1.04,0.843-1.883,1.883-1.883h29.024c1.04,0,1.883,0.843,1.883,1.883l0,0C235.67,371.014,234.827,371.857,233.787,371.857z"
					/>
				<path style="opacity:0.4;fill:#FFFFFF;" d="M260.961,371.857h-20.326c-1.04,0-1.883-0.843-1.883-1.883l0,0
					c0-1.04,0.843-1.883,1.883-1.883h20.326c1.04,0,1.883,0.843,1.883,1.883l0,0C262.844,371.014,262.001,371.857,260.961,371.857z"
					/>
			</g>
			<path style="opacity:0.5;fill:#FFFFFF;" d="M312.387,272.08h-22.826c-1.387,0-2.511-1.124-2.511-2.511l0,0
				c0-1.387,1.124-2.511,2.511-2.511h22.826c1.387,0,2.511,1.124,2.511,2.511l0,0C314.898,270.956,313.774,272.08,312.387,272.08z"
				/>
			<g>
				<g>
					<rect x="120.023" y="317.268" style="fill:#407BFF;" width="73.043" height="60.723"/>
					<rect x="120.023" y="317.268" style="opacity:0.8;fill:#FFFFFF;" width="73.043" height="60.723"/>
				</g>
				<rect x="133.399" y="324.123" style="fill:#407BFF;" width="46.292" height="30.434"/>
				<rect x="133.399" y="324.123" style="opacity:0.4;fill:#FFFFFF;" width="46.292" height="30.434"/>
				<polygon style="fill:#407BFF;" points="149.233,340.716 135.391,354.557 163.074,354.557 				"/>
				<polygon style="opacity:0.2;" points="149.233,340.716 135.391,354.557 163.074,354.557 				"/>
				<polygon style="fill:#407BFF;" points="179.215,354.557 165.48,331.123 151.747,354.557 				"/>
				<path style="opacity:0.8;fill:#FFFFFF;" d="M155.662,333.862c0,1.534-1.243,2.777-2.777,2.777c-1.534,0-2.777-1.243-2.777-2.777
					c0-1.534,1.243-2.777,2.777-2.777C154.419,331.085,155.662,332.328,155.662,333.862z"/>
			</g>
			<g>
				<path style="fill:#407BFF;" d="M296.516,289.656h-1.027c0-1.387-1.124-2.511-2.511-2.511h-1.598
					c0-1.387-1.124-2.511-2.511-2.511h-15.407c-1.387,0-2.511,1.124-2.511,2.511h-1.598c-1.387,0-2.511,1.124-2.511,2.511h-5.186
					c-1.387,0-2.511,1.124-2.511,2.511c0,1.387,1.124,2.511,2.511,2.511h34.86c1.387,0,2.511-1.124,2.511-2.511
					C299.026,290.78,297.902,289.656,296.516,289.656z"/>
				<path style="opacity:0.8;fill:#FFFFFF;" d="M296.516,289.656h-1.027c0-1.387-1.124-2.511-2.511-2.511h-1.598
					c0-1.387-1.124-2.511-2.511-2.511h-15.407c-1.387,0-2.511,1.124-2.511,2.511h-1.598c-1.387,0-2.511,1.124-2.511,2.511h-5.186
					c-1.387,0-2.511,1.124-2.511,2.511c0,1.387,1.124,2.511,2.511,2.511h34.86c1.387,0,2.511-1.124,2.511-2.511
					C299.026,290.78,297.902,289.656,296.516,289.656z"/>
			</g>
			<g>
				<path style="fill:#407BFF;" d="M166.188,308.278h-0.867c0-1.171-0.949-2.12-2.12-2.12h-1.349c0-1.171-0.949-2.12-2.12-2.12
					h-4.529c-1.171,0-2.12,0.949-2.12,2.12h-1.349c-1.171,0-2.12,0.949-2.12,2.12h-4.378c-1.171,0-2.12,0.949-2.12,2.12
					c0,1.171,0.949,2.12,2.12,2.12h20.951c1.171,0,2.12-0.949,2.12-2.12C168.307,309.227,167.359,308.278,166.188,308.278z"/>
				<path style="opacity:0.8;fill:#FFFFFF;" d="M166.188,308.278h-0.867c0-1.171-0.949-2.12-2.12-2.12h-1.349
					c0-1.171-0.949-2.12-2.12-2.12h-4.529c-1.171,0-2.12,0.949-2.12,2.12h-1.349c-1.171,0-2.12,0.949-2.12,2.12h-4.378
					c-1.171,0-2.12,0.949-2.12,2.12c0,1.171,0.949,2.12,2.12,2.12h20.951c1.171,0,2.12-0.949,2.12-2.12
					C168.307,309.227,167.359,308.278,166.188,308.278z"/>
			</g>
			<g>
				<path style="fill:#407BFF;" d="M238.59,315.028h-1.027c0-1.387-1.124-2.511-2.511-2.511h-1.598c0-0.46-0.133-0.885-0.348-1.255
					c0.216-0.371,0.348-0.796,0.348-1.255c0-1.387-1.124-2.511-2.511-2.511h-5.364c-1.387,0-2.511,1.124-2.511,2.511h-2.054
					c-1.387,0-2.511,1.124-2.511,2.511h-1.598c-1.387,0-2.511,1.124-2.511,2.511h-5.186c-1.387,0-2.511,1.124-2.511,2.511
					s1.124,2.511,2.511,2.511h29.381c1.387,0,2.511-1.124,2.511-2.511S239.977,315.028,238.59,315.028z"/>
				<path style="opacity:0.8;fill:#FFFFFF;" d="M238.59,315.028h-1.027c0-1.387-1.124-2.511-2.511-2.511h-1.598
					c0-0.46-0.133-0.885-0.348-1.255c0.216-0.371,0.348-0.796,0.348-1.255c0-1.387-1.124-2.511-2.511-2.511h-5.364
					c-1.387,0-2.511,1.124-2.511,2.511h-2.054c-1.387,0-2.511,1.124-2.511,2.511h-1.598c-1.387,0-2.511,1.124-2.511,2.511h-5.186
					c-1.387,0-2.511,1.124-2.511,2.511s1.124,2.511,2.511,2.511h29.381c1.387,0,2.511-1.124,2.511-2.511
					S239.977,315.028,238.59,315.028z"/>
			</g>
			<g>
				<g>
					<path style="fill:#263238;" d="M176.471,361.855h-41.996c-0.594,0-1.076-0.482-1.076-1.076l0,0
						c0-0.594,0.482-1.076,1.076-1.076h41.996c0.594,0,1.076,0.482,1.076,1.076l0,0
						C177.547,361.373,177.065,361.855,176.471,361.855z"/>
					<path style="opacity:0.4;fill:#FFFFFF;" d="M176.471,361.855h-41.996c-0.594,0-1.076-0.482-1.076-1.076l0,0
						c0-0.594,0.482-1.076,1.076-1.076h41.996c0.594,0,1.076,0.482,1.076,1.076l0,0
						C177.547,361.373,177.065,361.855,176.471,361.855z"/>
				</g>
				<g>
					<path style="fill:#263238;" d="M169.658,366.159h-35.183c-0.594,0-1.076-0.482-1.076-1.076l0,0
						c0-0.594,0.482-1.076,1.076-1.076h35.183c0.594,0,1.076,0.482,1.076,1.076l0,0
						C170.734,365.677,170.252,366.159,169.658,366.159z"/>
					<path style="opacity:0.4;fill:#FFFFFF;" d="M169.658,366.159h-35.183c-0.594,0-1.076-0.482-1.076-1.076l0,0
						c0-0.594,0.482-1.076,1.076-1.076h35.183c0.594,0,1.076,0.482,1.076,1.076l0,0
						C170.734,365.677,170.252,366.159,169.658,366.159z"/>
				</g>
				<g>
					<path style="fill:#263238;" d="M171.875,370.463h-37.4c-0.594,0-1.076-0.482-1.076-1.076l0,0c0-0.594,0.482-1.076,1.076-1.076
						h37.4c0.594,0,1.076,0.482,1.076,1.076l0,0C172.951,369.982,172.469,370.463,171.875,370.463z"/>
					<path style="opacity:0.4;fill:#FFFFFF;" d="M171.875,370.463h-37.4c-0.594,0-1.076-0.482-1.076-1.076l0,0
						c0-0.594,0.482-1.076,1.076-1.076h37.4c0.594,0,1.076,0.482,1.076,1.076l0,0C172.951,369.982,172.469,370.463,171.875,370.463z
						"/>
				</g>
			</g>
			<g>
				<path style="fill:#407BFF;" d="M149.714,252.164c-0.779-0.779-2.042-0.779-2.821,0s-0.779,2.042,0,2.821
					c0.689,0.689,1.757,0.768,2.533,0.237c0.013,0.1,0.05,0.199,0.128,0.276l1.346,1.347c0.186,0.186,0.487,0.186,0.673,0
					c0.186-0.186,0.186-0.487,0-0.673l-1.346-1.346c-0.077-0.077-0.175-0.115-0.276-0.128
					C150.481,253.92,150.403,252.853,149.714,252.164z M149.306,254.577c-0.554,0.554-1.452,0.554-2.005,0
					c-0.554-0.554-0.554-1.452,0-2.006c0.554-0.554,1.452-0.554,2.006,0C149.86,253.125,149.86,254.023,149.306,254.577z"/>
				<path style="opacity:0.2;" d="M149.714,252.164c-0.779-0.779-2.042-0.779-2.821,0s-0.779,2.042,0,2.821
					c0.689,0.689,1.757,0.768,2.533,0.237c0.013,0.1,0.05,0.199,0.128,0.276l1.346,1.347c0.186,0.186,0.487,0.186,0.673,0
					c0.186-0.186,0.186-0.487,0-0.673l-1.346-1.346c-0.077-0.077-0.175-0.115-0.276-0.128
					C150.481,253.92,150.403,252.853,149.714,252.164z M149.306,254.577c-0.554,0.554-1.452,0.554-2.005,0
					c-0.554-0.554-0.554-1.452,0-2.006c0.554-0.554,1.452-0.554,2.006,0C149.86,253.125,149.86,254.023,149.306,254.577z"/>
			</g>
		</g>
	</g>
</g>
<g id="Arrow">
	<g>
		<path style="fill:#407BFF;" d="M365.655,314.953L365.655,314.953c-1.105,0-2,0.896-2,2v19.461h-16.332l3.191-3.191
			c0.781-0.781,0.781-2.047,0-2.828l0,0c-0.781-0.781-2.047-0.781-2.828,0l-8.02,8.02l8.02,8.019c0.781,0.781,2.047,0.781,2.828,0
			l0,0c0.781-0.781,0.781-2.047,0-2.828l-3.19-3.19h20.332v-23.461C367.655,315.849,366.759,314.953,365.655,314.953z"/>
		<path style="opacity:0.7;fill:#FFFFFF;" d="M365.655,314.953L365.655,314.953c-1.105,0-2,0.896-2,2v19.461h-16.332l3.191-3.191
			c0.781-0.781,0.781-2.047,0-2.828l0,0c-0.781-0.781-2.047-0.781-2.828,0l-8.02,8.02l8.02,8.019c0.781,0.781,2.047,0.781,2.828,0
			l0,0c0.781-0.781,0.781-2.047,0-2.828l-3.19-3.19h20.332v-23.461C367.655,315.849,366.759,314.953,365.655,314.953z"/>
	</g>
</g>
<g id="File">
	<g>
		<polygon style="opacity:0.4;fill:#FFFFFF;" points="420.416,104.319 420.416,113.781 429.878,113.781 		"/>
		<g>
			<path style="fill:#407BFF;" d="M430.269,117.62l0.074,41.034c0.001,0.528-0.427,0.958-0.955,0.958l-37.942,0.068
				c-0.529,0.001-0.957-0.427-0.958-0.955l-0.096-53.373c-0.001-0.528,0.427-0.957,0.955-0.958l25.565-0.046L430.269,117.62z"/>
		</g>
		<g style="opacity:0.7;">
			<path style="fill:#FFFFFF;" d="M430.269,117.62l0.074,41.034c0.001,0.528-0.427,0.958-0.955,0.958l-37.942,0.068
				c-0.529,0.001-0.957-0.427-0.958-0.955l-0.096-53.373c-0.001-0.528,0.427-0.957,0.955-0.958l25.565-0.046L430.269,117.62z"/>
		</g>
		<path style="fill:#407BFF;" d="M416.932,104.319l0.022,12.377c0.001,0.528,0.43,0.956,0.958,0.955l12.339-0.022L416.932,104.319z"
			/>
		<path style="opacity:0.9;fill:#FFFFFF;" d="M416.932,104.319l0.022,12.377c0.001,0.528,0.43,0.956,0.958,0.955l12.339-0.022
			L416.932,104.319z"/>
		<g style="opacity:0.8;">
			<g>
				<g>
					<path style="fill:#FFFFFF;" d="M420.584,129.111h-20.196c-0.651,0-1.178-0.528-1.178-1.179l0,0
						c0-0.651,0.528-1.179,1.178-1.179h20.196c0.651,0,1.179,0.528,1.179,1.179l0,0
						C421.762,128.583,421.234,129.111,420.584,129.111z"/>
				</g>
				<g>
					<path style="fill:#FFFFFF;" d="M420.35,135.884h-19.963c-0.651,0-1.178-0.528-1.178-1.178l0,0c0-0.651,0.528-1.179,1.178-1.179
						h19.963c0.651,0,1.179,0.528,1.179,1.179l0,0C421.528,135.356,421.001,135.884,420.35,135.884z"/>
				</g>
			</g>
			<g>
				<g>
					<path style="fill:#FFFFFF;" d="M419.921,143.081h-19.534c-0.651,0-1.178-0.528-1.178-1.179l0,0
						c0-0.651,0.528-1.178,1.178-1.178h19.534c0.651,0,1.178,0.528,1.178,1.178l0,0C421.1,142.553,420.572,143.081,419.921,143.081z
						"/>
				</g>
			</g>
		</g>
	</g>
</g>
<g id="Image">
	<g>
		<g>
			<rect x="242.471" y="123.263" style="fill:#407BFF;" width="55.151" height="36.259"/>
			<rect x="242.471" y="123.263" style="opacity:0.7;fill:#FFFFFF;" width="55.151" height="36.259"/>
		</g>
		<g>
			<polygon style="fill:#407BFF;" points="261.335,143.031 244.844,159.522 277.825,159.522 			"/>
			<polygon style="opacity:0.3;fill:#FFFFFF;" points="261.335,143.031 244.844,159.522 277.825,159.522 			"/>
			<polygon style="fill:#407BFF;" points="297.054,159.522 280.692,131.603 264.33,159.522 			"/>
			<polygon style="opacity:0.5;fill:#FFFFFF;" points="297.054,159.522 280.692,131.603 264.33,159.522 			"/>
		</g>
		<circle style="opacity:0.8;fill:#FFFFFF;" cx="265.686" cy="134.866" r="3.309"/>
	</g>
</g>
<g id="Process">
	<g>
		<g>
			<path style="fill:#407BFF;" d="M225.687,175.294c0-0.402-0.02-0.798-0.051-1.192l5.026-3.443
				c-0.275-1.205-0.651-2.371-1.126-3.486l-6.09,0.169c-0.418-0.681-0.89-1.324-1.406-1.929l2.041-5.735
				c-0.92-0.803-1.909-1.528-2.962-2.16l-4.824,3.713c-0.731-0.303-1.491-0.549-2.274-0.736l-1.72-5.838
				c-0.605-0.053-1.215-0.085-1.833-0.085c-0.618,0-1.229,0.032-1.834,0.085l-1.72,5.838c-0.783,0.187-1.543,0.433-2.274,0.736
				l-4.824-3.713c-1.052,0.632-2.042,1.357-2.962,2.16l2.041,5.735c-0.517,0.604-0.989,1.248-1.407,1.929l-6.09-0.169
				c-0.475,1.115-0.851,2.281-1.127,3.486l5.026,3.443c-0.031,0.394-0.051,0.79-0.051,1.192c0,0.401,0.02,0.798,0.051,1.192
				l-5.026,3.443c0.276,1.205,0.651,2.372,1.127,3.486l6.09-0.169c0.418,0.681,0.89,1.324,1.407,1.929l-2.041,5.735
				c0.92,0.803,1.91,1.528,2.962,2.16l4.824-3.713c0.731,0.303,1.491,0.549,2.274,0.736l1.72,5.838
				c0.604,0.053,1.215,0.085,1.833,0.085c0.618,0,1.229-0.032,1.833-0.085l1.72-5.838c0.783-0.187,1.543-0.433,2.274-0.736
				l4.824,3.713c1.052-0.632,2.042-1.357,2.962-2.16l-2.041-5.735c0.516-0.605,0.988-1.248,1.406-1.929l6.09,0.169
				c0.475-1.115,0.851-2.281,1.126-3.486l-5.026-3.443C225.667,176.092,225.687,175.696,225.687,175.294z M210.466,182.291
				c-3.865,0-6.997-3.133-6.997-6.997c0-3.865,3.133-6.997,6.997-6.997c3.864,0,6.997,3.133,6.997,6.997
				C217.463,179.159,214.331,182.291,210.466,182.291z"/>
			<path style="opacity:0.7;fill:#FFFFFF;" d="M225.687,175.294c0-0.402-0.02-0.798-0.051-1.192l5.026-3.443
				c-0.275-1.205-0.651-2.371-1.126-3.486l-6.09,0.169c-0.418-0.681-0.89-1.324-1.406-1.929l2.041-5.735
				c-0.92-0.803-1.909-1.528-2.962-2.16l-4.824,3.713c-0.731-0.303-1.491-0.549-2.274-0.736l-1.72-5.838
				c-0.605-0.053-1.215-0.085-1.833-0.085c-0.618,0-1.229,0.032-1.834,0.085l-1.72,5.838c-0.783,0.187-1.543,0.433-2.274,0.736
				l-4.824-3.713c-1.052,0.632-2.042,1.357-2.962,2.16l2.041,5.735c-0.517,0.604-0.989,1.248-1.407,1.929l-6.09-0.169
				c-0.475,1.115-0.851,2.281-1.127,3.486l5.026,3.443c-0.031,0.394-0.051,0.79-0.051,1.192c0,0.401,0.02,0.798,0.051,1.192
				l-5.026,3.443c0.276,1.205,0.651,2.372,1.127,3.486l6.09-0.169c0.418,0.681,0.89,1.324,1.407,1.929l-2.041,5.735
				c0.92,0.803,1.91,1.528,2.962,2.16l4.824-3.713c0.731,0.303,1.491,0.549,2.274,0.736l1.72,5.838
				c0.604,0.053,1.215,0.085,1.833,0.085c0.618,0,1.229-0.032,1.833-0.085l1.72-5.838c0.783-0.187,1.543-0.433,2.274-0.736
				l4.824,3.713c1.052-0.632,2.042-1.357,2.962-2.16l-2.041-5.735c0.516-0.605,0.988-1.248,1.406-1.929l6.09,0.169
				c0.475-1.115,0.851-2.281,1.126-3.486l-5.026-3.443C225.667,176.092,225.687,175.696,225.687,175.294z M210.466,182.291
				c-3.865,0-6.997-3.133-6.997-6.997c0-3.865,3.133-6.997,6.997-6.997c3.864,0,6.997,3.133,6.997,6.997
				C217.463,179.159,214.331,182.291,210.466,182.291z"/>
		</g>
		<g>
			<path style="fill:#407BFF;" d="M244.81,199.794c0-0.259-0.013-0.514-0.033-0.768l3.238-2.218
				c-0.178-0.776-0.419-1.528-0.726-2.246l-3.924,0.108c-0.269-0.439-0.573-0.853-0.906-1.243l1.315-3.695
				c-0.593-0.517-1.23-0.984-1.908-1.391l-3.108,2.392c-0.471-0.195-0.96-0.354-1.465-0.474l-1.108-3.761
				c-0.389-0.034-0.783-0.055-1.181-0.055c-0.398,0-0.792,0.021-1.181,0.055l-1.108,3.761c-0.504,0.121-0.994,0.279-1.465,0.474
				l-3.108-2.392c-0.678,0.407-1.315,0.874-1.908,1.391l1.315,3.695c-0.333,0.389-0.637,0.804-0.906,1.243l-3.924-0.108
				c-0.306,0.718-0.548,1.47-0.726,2.246l3.238,2.218c-0.02,0.254-0.033,0.509-0.033,0.768c0,0.259,0.013,0.514,0.033,0.768
				l-3.238,2.218c0.178,0.776,0.419,1.528,0.726,2.246l3.924-0.109c0.269,0.439,0.573,0.853,0.906,1.243l-1.315,3.695
				c0.593,0.517,1.23,0.984,1.908,1.392l3.108-2.392c0.471,0.195,0.96,0.354,1.465,0.474l1.108,3.761
				c0.389,0.034,0.783,0.055,1.181,0.055c0.398,0,0.792-0.021,1.181-0.055l1.108-3.761c0.504-0.121,0.994-0.279,1.465-0.474
				l3.108,2.392c0.678-0.407,1.315-0.874,1.908-1.392l-1.315-3.695c0.333-0.389,0.637-0.804,0.906-1.243l3.924,0.109
				c0.306-0.718,0.548-1.47,0.726-2.246l-3.238-2.218C244.797,200.308,244.81,200.053,244.81,199.794z M235.004,204.302
				c-2.49,0-4.508-2.018-4.508-4.508c0-2.49,2.019-4.508,4.508-4.508s4.508,2.018,4.508,4.508
				C239.512,202.284,237.494,204.302,235.004,204.302z"/>
			<path style="opacity:0.7;fill:#FFFFFF;" d="M244.81,199.794c0-0.259-0.013-0.514-0.033-0.768l3.238-2.218
				c-0.178-0.776-0.419-1.528-0.726-2.246l-3.924,0.108c-0.269-0.439-0.573-0.853-0.906-1.243l1.315-3.695
				c-0.593-0.517-1.23-0.984-1.908-1.391l-3.108,2.392c-0.471-0.195-0.96-0.354-1.465-0.474l-1.108-3.761
				c-0.389-0.034-0.783-0.055-1.181-0.055c-0.398,0-0.792,0.021-1.181,0.055l-1.108,3.761c-0.504,0.121-0.994,0.279-1.465,0.474
				l-3.108-2.392c-0.678,0.407-1.315,0.874-1.908,1.391l1.315,3.695c-0.333,0.389-0.637,0.804-0.906,1.243l-3.924-0.108
				c-0.306,0.718-0.548,1.47-0.726,2.246l3.238,2.218c-0.02,0.254-0.033,0.509-0.033,0.768c0,0.259,0.013,0.514,0.033,0.768
				l-3.238,2.218c0.178,0.776,0.419,1.528,0.726,2.246l3.924-0.109c0.269,0.439,0.573,0.853,0.906,1.243l-1.315,3.695
				c0.593,0.517,1.23,0.984,1.908,1.392l3.108-2.392c0.471,0.195,0.96,0.354,1.465,0.474l1.108,3.761
				c0.389,0.034,0.783,0.055,1.181,0.055c0.398,0,0.792-0.021,1.181-0.055l1.108-3.761c0.504-0.121,0.994-0.279,1.465-0.474
				l3.108,2.392c0.678-0.407,1.315-0.874,1.908-1.392l-1.315-3.695c0.333-0.389,0.637-0.804,0.906-1.243l3.924,0.109
				c0.306-0.718,0.548-1.47,0.726-2.246l-3.238-2.218C244.797,200.308,244.81,200.053,244.81,199.794z M235.004,204.302
				c-2.49,0-4.508-2.018-4.508-4.508c0-2.49,2.019-4.508,4.508-4.508s4.508,2.018,4.508,4.508
				C239.512,202.284,237.494,204.302,235.004,204.302z"/>
		</g>
		<g>
			<path style="fill:#407BFF;" d="M213.276,201.157v20.332l-3.191-3.191c-0.781-0.781-2.047-0.781-2.828,0h0
				c-0.781,0.781-0.781,2.047,0,2.828l8.019,8.019l8.018-8.019c0.781-0.781,0.781-2.047,0-2.828l0,0
				c-0.781-0.781-2.047-0.781-2.828,0l-3.19,3.19v-20.332c0-1.105-0.895-2-2-2l0,0C214.171,199.157,213.276,200.052,213.276,201.157
				z"/>
			<path style="opacity:0.7;fill:#FFFFFF;" d="M213.276,201.157v20.332l-3.191-3.191c-0.781-0.781-2.047-0.781-2.828,0h0
				c-0.781,0.781-0.781,2.047,0,2.828l8.019,8.019l8.018-8.019c0.781-0.781,0.781-2.047,0-2.828l0,0
				c-0.781-0.781-2.047-0.781-2.828,0l-3.19,3.19v-20.332c0-1.105-0.895-2-2-2l0,0C214.171,199.157,213.276,200.052,213.276,201.157
				z"/>
		</g>
	</g>
</g>
<g id="Search">
	<g>
		<g>
			<path style="fill:#407BFF;" d="M178.925,237.27h-59.83c-3.788,0-6.859-3.071-6.859-6.86v-10.53c0-3.788,3.071-6.86,6.859-6.86
				h59.83c3.788,0,6.86,3.071,6.86,6.86v10.53C185.785,234.199,182.714,237.27,178.925,237.27z"/>
			<path style="opacity:0.7;fill:#FFFFFF;" d="M178.925,237.27h-59.83c-3.788,0-6.859-3.071-6.859-6.86v-10.53
				c0-3.788,3.071-6.86,6.859-6.86h59.83c3.788,0,6.86,3.071,6.86,6.86v10.53C185.785,234.199,182.714,237.27,178.925,237.27z"/>
		</g>
		<path style="opacity:0.8;fill:#FFFFFF;" d="M151.24,218.43c-2.47-2.47-6.476-2.47-8.946,0c-2.47,2.47-2.47,6.476,0,8.946
			c2.186,2.186,5.571,2.433,8.033,0.752c0.041,0.319,0.16,0.63,0.404,0.875l4.27,4.27c0.59,0.589,1.546,0.589,2.135,0
			c0.59-0.59,0.589-1.545,0-2.135l-4.27-4.27c-0.245-0.245-0.556-0.363-0.874-0.405C153.674,224,153.426,220.615,151.24,218.43z
			 M149.947,226.082c-1.756,1.756-4.603,1.756-6.359,0c-1.756-1.756-1.756-4.603,0-6.359c1.756-1.756,4.604-1.756,6.36,0
			C151.704,221.479,151.704,224.326,149.947,226.082z"/>
	</g>
</g>
</svg>
