<svg width="74" height="68" viewBox="0 0 74 68" fill="none" xmlns="http://www.w3.org/2000/svg">
<path d="M68.2304 0.43607C58.4408 0.320363 35.6403 2.79418 18.5123 25.8684C16.7636 28.2242 17.1174 31.4154 19.3051 33.4334L37.5922 50.3011C39.7799 52.319 43.2422 52.6453 45.7937 51.0324C70.8095 35.2361 73.4915 14.2029 73.366 5.17311C73.3334 2.55813 71.0679 0.468468 68.2304 0.43607ZM51.0723 31.8991C47.7907 34.9283 42.4669 34.9283 39.1828 31.8991C35.9012 28.8699 35.9012 23.9616 39.1828 20.9324C42.4669 17.9055 47.7882 17.9055 51.0723 20.9324C54.3564 23.9616 54.3564 28.8699 51.0723 31.8991Z" fill="url(#paint0_linear_1_4634)"/>
<path d="M3.12699 54.2956C3.70406 54.2956 4.28113 54.092 4.72271 53.6846L8.36829 50.322C9.25145 49.5074 9.25145 48.1883 8.36829 47.376C7.48512 46.5637 6.0575 46.5613 5.17684 47.376L1.53127 50.7386C0.648105 51.5532 0.648105 52.8723 1.53127 53.6846C1.97285 54.092 2.54992 54.2956 3.12699 54.2956Z" fill="url(#paint1_linear_1_4634)"/>
<path d="M15.2049 54.0846C14.3217 53.27 12.8916 53.27 12.0134 54.0846L1.73659 63.5615C0.853427 64.3761 0.853427 65.6953 1.73659 66.5076C2.17818 66.9149 2.75525 67.1185 3.33231 67.1185C3.90938 67.1185 4.48896 66.9149 4.92804 66.5076L15.2024 57.0283C16.0881 56.216 16.0881 54.8969 15.2049 54.0846Z" fill="url(#paint2_linear_1_4634)"/>
<path d="M19.284 60.3905L15.6384 63.7531C14.7553 64.5677 14.7553 65.8869 15.6384 66.6992C16.08 67.1088 16.6571 67.3101 17.2342 67.3101C17.8112 67.3101 18.3883 67.1065 18.8299 66.6992L22.4755 63.3365C23.3586 62.5219 23.3586 61.2028 22.4755 60.3905C21.5923 59.5782 20.1647 59.5782 19.284 60.3905Z" fill="url(#paint3_linear_1_4634)"/>
<path d="M14.1701 17.1877C15.9543 18.8272 18.7378 18.6326 20.4026 16.8721C22.9282 14.2012 25.5271 11.8723 28.154 9.84292C29.1311 9.08811 28.5847 7.52061 27.3628 7.69759C22.3197 8.43815 18.1046 10.0581 14.9433 11.6318C12.763 12.7195 12.3113 15.4504 14.0676 17.0935L14.1701 17.1877Z" fill="url(#paint4_linear_1_4634)"/>
<path d="M55.6039 49.2889C53.7695 50.7623 53.5835 53.5403 55.31 55.1388C57.0913 56.7588 60.052 56.3422 61.2312 54.3288C62.9373 51.4128 64.6936 47.5248 65.4965 42.8732C65.7013 41.6745 64.2011 41.0771 63.3858 41.9793C61.147 44.4569 58.5678 46.9082 55.6039 49.2889Z" fill="url(#paint5_linear_1_4634)"/>
<path d="M17.6515 37.7979C16.8749 37.0816 15.6784 37.0816 14.9018 37.7979C12.7216 39.8089 12.7216 43.0695 14.9018 45.0805L24.9673 54.3648C27.1475 56.3758 30.6825 56.3758 32.8627 54.3648C33.6034 53.6816 33.6034 52.5117 32.8627 51.8285L17.6515 37.7979Z" fill="url(#paint6_linear_1_4634)"/>
<defs>
<linearGradient id="paint0_linear_1_4634" x1="17.4014" y1="11.9391" x2="73.4767" y2="12.3677" gradientUnits="userSpaceOnUse">
<stop stop-color="#000045"/>
<stop offset="0.475694" stop-color="#387FC4"/>
<stop offset="1" stop-color="#9EE3FC"/>
</linearGradient>
<linearGradient id="paint1_linear_1_4634" x1="0.868897" y1="48.4442" x2="9.04621" y2="48.5067" gradientUnits="userSpaceOnUse">
<stop stop-color="#000045"/>
<stop offset="0.475694" stop-color="#387FC4"/>
<stop offset="1" stop-color="#9EE3FC"/>
</linearGradient>
<linearGradient id="paint2_linear_1_4634" x1="1.07422" y1="56.515" x2="15.8951" y2="56.6282" gradientUnits="userSpaceOnUse">
<stop stop-color="#000045"/>
<stop offset="0.475694" stop-color="#387FC4"/>
<stop offset="1" stop-color="#9EE3FC"/>
</linearGradient>
<linearGradient id="paint3_linear_1_4634" x1="14.9761" y1="61.4594" x2="23.1534" y2="61.5219" gradientUnits="userSpaceOnUse">
<stop stop-color="#000045"/>
<stop offset="0.475694" stop-color="#387FC4"/>
<stop offset="1" stop-color="#9EE3FC"/>
</linearGradient>
<linearGradient id="paint4_linear_1_4634" x1="12.9875" y1="10.2089" x2="31.6552" y2="10.3997" gradientUnits="userSpaceOnUse">
<stop stop-color="#000045"/>
<stop offset="0.475694" stop-color="#387FC4"/>
<stop offset="1" stop-color="#9EE3FC"/>
</linearGradient>
<linearGradient id="paint5_linear_1_4634" x1="51.9604" y1="42.8473" x2="65.9072" y2="42.9273" gradientUnits="userSpaceOnUse">
<stop stop-color="#000045"/>
<stop offset="0.475694" stop-color="#387FC4"/>
<stop offset="1" stop-color="#9EE3FC"/>
</linearGradient>
<linearGradient id="paint6_linear_1_4634" x1="13.2666" y1="40.8412" x2="34.2775" y2="41.0018" gradientUnits="userSpaceOnUse">
<stop stop-color="#000045"/>
<stop offset="0.475694" stop-color="#387FC4"/>
<stop offset="1" stop-color="#9EE3FC"/>
</linearGradient>
</defs>
</svg>
