<svg width="77" height="71" viewBox="0 0 77 71" fill="none" xmlns="http://www.w3.org/2000/svg">
<path d="M61.3417 18.1677C59.8022 19.4641 59.5134 21.699 60.388 23.5116C62.1313 27.1244 63.0759 31.2177 63.0759 35.5C63.0759 50.7143 50.7143 63.0759 35.5 63.0759C20.2857 63.0759 7.92411 50.7143 7.92411 35.5C7.92411 20.2857 20.2857 7.92411 35.5 7.92411C42.1656 7.92411 48.2705 10.279 53.06 14.2342C54.5264 15.4451 54.3705 17.6617 52.8946 18.8609C51.5728 19.9348 49.6633 19.7908 48.3152 18.7501C44.7641 16.0086 40.2907 14.4219 35.5 14.4219C23.9308 14.4219 14.4219 23.9308 14.4219 35.5C14.4219 47.0692 23.9308 56.5781 35.5 56.5781C47.0692 56.5781 56.5781 47.0692 56.5781 35.5C56.5781 33.2297 56.2139 31.0114 55.545 28.9346C54.7685 26.5236 51.8088 26.0073 49.8507 27.614C48.3974 28.8064 47.9956 30.813 48.4444 32.6385C48.6735 33.5707 48.8125 34.5353 48.8125 35.5C48.8125 42.7902 42.7902 48.8125 35.5 48.8125C28.2098 48.8125 22.1875 42.7902 22.1875 35.5C22.1875 28.2098 28.2098 22.1875 35.5 22.1875C37.3833 22.1875 39.1742 22.5574 40.7976 23.2473C42.9852 24.177 42.9197 27.0189 41.0937 28.5406C39.7499 29.6604 37.8074 29.6362 36.0636 29.4994C35.8794 29.4849 35.6915 29.4777 35.5 29.4777C32.1719 29.4777 29.4777 32.1719 29.4777 35.5C29.4777 38.8281 32.1719 41.5223 35.5 41.5223C38.8281 41.5223 41.5223 38.8281 41.5223 35.5C41.5223 34.1601 41.7781 32.6766 42.8107 31.8227L63.9102 14.375C65.1256 13.37 66.599 12.7265 68.1623 12.5181L69.7121 12.3114C70.2433 12.2406 70.7444 12.0238 71.1596 11.685L73.2341 9.99268C74.4606 8.99211 73.8598 7.00733 72.2857 6.84163C71.3152 6.73947 70.6074 5.86951 70.7095 4.89901C70.8746 3.33028 69.0576 2.34778 67.8354 3.3449L65.7681 5.03134C65.355 5.36834 65.0441 5.81388 64.8703 6.31787L63.7205 9.65236C63.6099 9.97303 63.4123 10.2566 63.1498 10.4714C62.3975 11.0869 61.2985 11.0024 60.6097 10.3166C54.1863 3.92165 45.3426 0 35.6585 0C16.0067 0 0 16.0067 0 35.5C0 54.9933 15.8482 71 35.5 71C55.1518 71 71 55.1518 71 35.5C71 29.5957 69.5063 23.9901 66.9136 19.0779C65.8268 17.0188 63.1227 16.6679 61.3417 18.1677Z" fill="url(#paint0_linear_1_4628)"/>
<defs>
<linearGradient id="paint0_linear_1_4628" x1="4.2677e-07" y1="15.8253" x2="76.6928" y2="16.4082" gradientUnits="userSpaceOnUse">
<stop stop-color="#000045"/>
<stop offset="0.475694" stop-color="#387FC4"/>
<stop offset="1" stop-color="#9EE3FC"/>
</linearGradient>
</defs>
</svg>
