<svg width="27" height="27" viewBox="0 0 27 27" fill="none" xmlns="http://www.w3.org/2000/svg">
<path d="M23.625 3.375H3.375C2.1375 3.375 1.125 4.3875 1.125 5.625V19.125C1.125 20.3625 2.1375 21.375 3.375 21.375H9V23.625H18V21.375H23.625C24.8625 21.375 25.875 20.3625 25.875 19.125V5.625C25.875 4.3875 24.8625 3.375 23.625 3.375ZM23.625 19.125H3.375V5.625H23.625V19.125ZM21.375 9H9V11.25H21.375V9ZM21.375 13.5H9V15.75H21.375V13.5ZM7.875 9H5.625V11.25H7.875V9ZM7.875 13.5H5.625V15.75H7.875V13.5Z" fill="#387FC4"/>
</svg>
