<svg width="20" height="28" viewBox="0 0 20 28" fill="none" xmlns="http://www.w3.org/2000/svg">
<path d="M3.75 5H16.25V7.5H18.75V2.5C18.75 1.125 17.625 0.0125 16.25 0.0125L3.75 0C2.375 0 1.25 1.125 1.25 2.5V7.5H3.75V5ZM14.2625 19.4875L20 13.75L14.2625 8.0125L12.5 9.7875L16.4625 13.75L12.5 17.7125L14.2625 19.4875ZM7.5 17.7125L3.5375 13.75L7.5 9.7875L5.7375 8.0125L0 13.75L5.7375 19.4875L7.5 17.7125ZM16.25 22.5H3.75V20H1.25V25C1.25 26.375 2.375 27.5 3.75 27.5H16.25C17.625 27.5 18.75 26.375 18.75 25V20H16.25V22.5Z" fill="#387FC4"/>
</svg>
