<svg width="31" height="23" viewBox="0 0 31 23" fill="none" xmlns="http://www.w3.org/2000/svg">
<path d="M28.4044 0H1.83148C0.822498 0 0 0.822383 0 1.83148V21.1685C0 22.1775 0.822383 23 1.83148 23H28.4044C29.4133 23 30.2358 22.1776 30.2358 21.1685V1.83148C30.2358 0.822498 29.4135 0.00011512 28.4044 0.00011512V0ZM28.5081 1.83136V5.35599L13.6908 5.3561L12.3743 1.72781H28.401C28.4597 1.72781 28.5081 1.77269 28.5081 1.83141L28.5081 1.83136ZM1.83152 1.72776H11.272L12.5885 5.35605H1.72783V1.83143C1.72783 1.7726 1.7762 1.72772 1.83154 1.72772L1.83152 1.72776ZM28.4044 21.2721H1.83152C1.77281 21.2721 1.72781 21.2273 1.72781 21.1684L1.72793 6.39266H28.5081V21.1684C28.5081 21.2271 28.4598 21.272 28.4044 21.272L28.4044 21.2721Z" fill="#387FC4"/>
<path d="M3.62118 4.48187C4.16021 4.48187 4.59564 4.04644 4.59564 3.50741C4.59564 2.96838 4.16021 2.53296 3.62118 2.53296C3.08215 2.53296 2.64673 2.96838 2.64673 3.50741C2.64673 4.04644 3.08204 4.48187 3.62118 4.48187Z" fill="#387FC4"/>
<path d="M7.53948 3.50741C7.53948 4.04555 7.10317 4.48187 6.56503 4.48187C6.02689 4.48187 5.59058 4.04555 5.59058 3.50741C5.59058 2.96919 6.02689 2.53296 6.56503 2.53296C7.10317 2.53296 7.53948 2.96916 7.53948 3.50741Z" fill="#387FC4"/>
<path d="M10.4836 3.50741C10.4836 4.04555 10.0474 4.48187 9.50912 4.48187C8.97098 4.48187 8.53467 4.04555 8.53467 3.50741C8.53467 2.96919 8.97098 2.53296 9.50912 2.53296C10.0473 2.53296 10.4836 2.96916 10.4836 3.50741Z" fill="#387FC4"/>
<line x1="1" y1="6.5" x2="29" y2="6.5" stroke="#387FC4"/>
</svg>
