<svg width="21" height="21" viewBox="0 0 21 21" fill="none" xmlns="http://www.w3.org/2000/svg">
<path d="M13.875 0.375H2.625C1.3875 0.375 0.38625 1.3875 0.38625 2.625L0.375 18.375C0.375 19.6125 1.37625 20.625 2.61375 20.625H18.375C19.6125 20.625 20.625 19.6125 20.625 18.375V7.125L13.875 0.375ZM2.625 18.375V2.625H12.75V8.25H18.375V18.375H2.625ZM7.125 6C7.125 6.61875 6.61875 7.125 6 7.125C5.38125 7.125 4.875 6.61875 4.875 6C4.875 5.38125 5.38125 4.875 6 4.875C6.61875 4.875 7.125 5.38125 7.125 6ZM7.125 10.5C7.125 11.1187 6.61875 11.625 6 11.625C5.38125 11.625 4.875 11.1187 4.875 10.5C4.875 9.88125 5.38125 9.375 6 9.375C6.61875 9.375 7.125 9.88125 7.125 10.5ZM7.125 15C7.125 15.6187 6.61875 16.125 6 16.125C5.38125 16.125 4.875 15.6187 4.875 15C4.875 14.3813 5.38125 13.875 6 13.875C6.61875 13.875 7.125 14.3813 7.125 15Z" fill="#387FC4"/>
</svg>
